<?xml version="1.0" encoding="UTF-8" standalone="no"?>
<svg xmlns="http://www.w3.org/2000/svg" xmlns:xlink="http://www.w3.org/1999/xlink" xmlns:serif="http://www.serif.com/" width="100%" height="100%" viewBox="0 0 787 495" version="1.1" xml:space="preserve" style="fill-rule:evenodd;clip-rule:evenodd;stroke-linejoin:round;stroke-miterlimit:2;">
  <g>
    <g>
      <path d="M145.985,129.78l-0,27.941l65.168,-0c-2.735,11.941 -8.794,22.63 -17.174,31.009c-11.614,11.613 -27.648,18.806 -45.33,18.806l-0.001,0c-17.683,0 -33.716,-7.193 -45.33,-18.806c-11.615,-11.614 -18.807,-27.647 -18.807,-45.329l-0,-0.001c-0,-17.682 7.193,-33.717 18.807,-45.33c11.614,-11.613 27.648,-18.807 45.33,-18.807l0.001,-0c17.682,-0 33.715,7.194 45.328,18.807l20.677,-20.677c-16.91,-16.911 -40.257,-27.385 -66.005,-27.385l-0.001,-0c-25.747,0 -49.095,10.475 -66.007,27.386c-16.911,16.911 -27.385,40.258 -27.385,66.006l-0,0.001c-0,25.748 10.474,49.095 27.385,66.006c16.91,16.911 40.258,27.384 66.007,27.384l0.001,0c25.748,0 49.095,-10.473 66.007,-27.384c13.713,-13.712 23.19,-31.66 26.285,-51.686l20.924,-0c-3.24,25.753 -15.057,48.874 -32.54,66.356c-20.669,20.669 -49.205,33.47 -80.676,33.47c-31.47,0 -60.007,-12.802 -80.676,-33.471l-0.001,0c-20.669,-20.669 -33.469,-49.204 -33.469,-80.675l-0,-0.001c-0,-31.47 12.802,-60.006 33.47,-80.674c20.669,-20.669 49.206,-33.47 80.675,-33.471l0.001,0c31.471,0 60.005,12.801 80.674,33.469l20.677,-20.676c-25.967,-25.966 -61.815,-42.048 -101.351,-42.048l-0.001,0c-39.535,0.001 -75.385,16.083 -101.35,42.049c-25.967,25.966 -42.05,61.816 -42.05,101.351l-0,0.001c-0,39.525 16.074,75.364 42.027,101.33c-0.897,0.813 -1.815,1.602 -2.693,2.437l-0,0.001c-0.844,0.806 -1.708,1.592 -2.534,2.416c-25.965,25.967 -42.048,61.816 -42.048,101.351l0,0.001c0,39.536 16.081,75.385 42.047,101.352c25.966,25.967 61.816,42.049 101.352,42.049l0.002,0c39.535,0 75.386,-16.082 101.353,-42.048c25.965,-25.967 42.048,-61.817 42.048,-101.353l0,-0.001l-29.255,0l0,0.001c0,31.471 -12.801,60.008 -33.471,80.677c-20.668,20.668 -49.205,33.469 -80.675,33.469l-0.002,0c-31.47,0 -60.006,-12.801 -80.675,-33.47c-20.669,-20.67 -33.469,-49.205 -33.469,-80.676l0,-0.001c0,-31.47 12.802,-60.005 33.47,-80.674c1.709,-1.708 3.489,-3.341 5.302,-4.939c6.389,3.965 13.104,7.453 20.108,10.389c-3.808,2.805 -7.405,5.88 -10.742,9.218c-16.91,16.911 -27.385,40.258 -27.385,66.006l-0,0.001c-0,25.749 10.473,49.095 27.385,66.006c16.91,16.912 40.259,27.385 66.006,27.385l0.002,-0c25.748,-0 49.095,-10.473 66.007,-27.384c16.91,-16.911 27.383,-40.258 27.383,-66.007l0,-0.001l-29.255,0l0,0.001c0,17.682 -7.192,33.716 -18.806,45.329c-11.613,11.614 -27.648,18.807 -45.329,18.807l-0.002,-0c-17.683,-0 -33.716,-7.193 -45.329,-18.807c-11.615,-11.613 -18.807,-27.647 -18.807,-45.329l-0,-0.001c-0,-17.682 7.194,-33.716 18.807,-45.329c11.6,-11.602 27.615,-18.791 45.274,-18.806c0.018,-0 0.037,-0.002 0.055,-0.002l0,-0.13c1.744,0.063 3.489,0.133 5.249,0.133l0.001,0c39.536,0 75.386,-16.082 101.352,-42.048c22.792,-22.793 37.962,-53.203 41.332,-87.033c0.468,-4.712 0.717,-9.488 0.717,-14.32l-0,-13.621l-146.065,0Z" style="fill-rule:nonzero;"></path>
      <path d="M145.985,129.78l-0,27.941l65.168,-0c-2.735,11.941 -8.794,22.63 -17.174,31.009c-11.614,11.613 -27.648,18.806 -45.33,18.806l-0.001,0c-17.683,0 -33.716,-7.193 -45.33,-18.806c-11.615,-11.614 -18.807,-27.647 -18.807,-45.329l-0,-0.001c-0,-17.682 7.193,-33.717 18.807,-45.33c11.614,-11.613 27.648,-18.807 45.33,-18.807l0.001,-0c17.682,-0 33.715,7.194 45.328,18.807l20.677,-20.677c-16.91,-16.911 -40.257,-27.385 -66.005,-27.385l-0.001,-0c-25.747,0 -49.095,10.475 -66.007,27.386c-16.911,16.911 -27.385,40.258 -27.385,66.006l-0,0.001c-0,25.748 10.474,49.095 27.385,66.006c16.91,16.911 40.258,27.384 66.007,27.384l0.001,0c25.748,0 49.095,-10.473 66.007,-27.384c13.713,-13.712 23.19,-31.66 26.285,-51.686l20.924,-0c-3.24,25.753 -15.057,48.874 -32.54,66.356c-20.669,20.669 -49.205,33.47 -80.676,33.47c-31.47,0 -60.007,-12.802 -80.676,-33.471l-0.001,0c-20.669,-20.669 -33.469,-49.204 -33.469,-80.675l-0,-0.001c-0,-31.47 12.802,-60.006 33.47,-80.674c20.669,-20.669 49.206,-33.47 80.675,-33.471l0.001,0c31.471,0 60.005,12.801 80.674,33.469l20.677,-20.676c-25.967,-25.966 -61.815,-42.048 -101.351,-42.048l-0.001,0c-39.535,0.001 -75.385,16.083 -101.35,42.049c-25.967,25.966 -42.05,61.816 -42.05,101.351l-0,0.001c-0,39.525 16.074,75.364 42.027,101.33c-0.897,0.813 -1.815,1.602 -2.693,2.437l-0,0.001c-0.844,0.806 -1.708,1.592 -2.534,2.416c-25.965,25.967 -42.048,61.816 -42.048,101.351l0,0.001c0,39.536 16.081,75.385 42.047,101.352c25.966,25.967 61.816,42.049 101.352,42.049l0.002,0c39.535,0 75.386,-16.082 101.353,-42.048c25.965,-25.967 42.048,-61.817 42.048,-101.353l0,-0.001l-29.255,0l0,0.001c0,31.471 -12.801,60.008 -33.471,80.677c-20.668,20.668 -49.205,33.469 -80.675,33.469l-0.002,0c-31.47,0 -60.006,-12.801 -80.675,-33.47c-20.669,-20.67 -33.469,-49.205 -33.469,-80.676l0,-0.001c0,-31.47 12.802,-60.005 33.47,-80.674c1.709,-1.708 3.489,-3.341 5.302,-4.939c6.389,3.965 13.104,7.453 20.108,10.389c-3.808,2.805 -7.405,5.88 -10.742,9.218c-16.91,16.911 -27.385,40.258 -27.385,66.006l-0,0.001c-0,25.749 10.473,49.095 27.385,66.006c16.91,16.912 40.259,27.385 66.006,27.385l0.002,-0c25.748,-0 49.095,-10.473 66.007,-27.384c16.91,-16.911 27.383,-40.258 27.383,-66.007l0,-0.001l-29.255,0l0,0.001c0,17.682 -7.192,33.716 -18.806,45.329c-11.613,11.614 -27.648,18.807 -45.329,18.807l-0.002,-0c-17.683,-0 -33.716,-7.193 -45.329,-18.807c-11.615,-11.613 -18.807,-27.647 -18.807,-45.329l-0,-0.001c-0,-17.682 7.194,-33.716 18.807,-45.329c11.6,-11.602 27.615,-18.791 45.274,-18.806c0.018,-0 0.037,-0.002 0.055,-0.002l0,-0.13c1.744,0.063 3.489,0.133 5.249,0.133l0.001,0c39.536,0 75.386,-16.082 101.352,-42.048c22.792,-22.793 37.962,-53.203 41.332,-87.033c0.468,-4.712 0.717,-9.488 0.717,-14.32l-0,-13.621l-146.065,0Z" style="fill-rule:nonzero;"></path>
    </g>
  </g>
  <g transform="matrix(3.125,0,0,3.125,-282.734,-200.955)">
    <text x="201.759px" y="87.831px" style="font-family:'HelveticaNeueLTPro-Bd', 'Helvetica Neue LT Pro', sans-serif;font-weight:700;font-size:25px;">Gr<tspan x="230.009px " y="87.831px ">o</tspan>wing Up</text>
    <text x="201.759px" y="115.831px" style="font-family:'HelveticaNeueLTPro-Bd', 'Helvetica Neue LT Pro', sans-serif;font-weight:700;font-size:25px;">T<tspan x="214.259px " y="115.831px ">o</tspan>gether in</text>
    <text x="201.759px" y="143.831px" style="font-family:'HelveticaNeueLTPro-Bd', 'Helvetica Neue LT Pro', sans-serif;font-weight:700;font-size:25px;">Society</text>
  </g>
</svg>
